<svg width="200" height="200" viewBox="0 0 200 200" xmlns="http://www.w3.org/2000/svg" role="img" aria-label="Bilady logo">
  <defs>
    <linearGradient id="bg" x1="0" y1="0" x2="1" y2="1">
      <stop offset="0%" stop-color="#F7F3EA" />
      <stop offset="100%" stop-color="#F2C94C" stop-opacity="0.6" />
    </linearGradient>
    <linearGradient id="path" x1="0" y1="0" x2="1" y2="1">
      <stop offset="0%" stop-color="#2F8F46" />
      <stop offset="100%" stop-color="#D62828" />
    </linearGradient>
  </defs>
  <rect x="8" y="8" width="184" height="184" rx="36" fill="url(#bg)" stroke="#2F8F46" stroke-width="6" />
  <path d="M64 60h58c10 0 18 8 18 18v12c0 10-8 18-18 18H94l-7.5 18.5c-1.3 3.2-5.9 3.6-7.7 0.7L68 126H64c-10 0-18-8-18-18V78c0-10 8-18 18-18z" fill="#D62828" opacity="0.92" />
  <path d="M134 68H76a10 10 0 0 0-10 10v18c0 5.5 4.5 10 10 10h26l7 10c2.2 3 6.9 2.6 8.6-0.8l5.2-9.2H134c5.5 0 10-4.5 10-10V78c0-5.5-4.5-10-10-10z" fill="#F7F3EA" />
  <path d="M97 80h30c3.3 0 6 2.7 6 6s-2.7 6-6 6H97c-3.3 0-6-2.7-6-6s2.7-6 6-6z" fill="#2F8F46" />
  <path d="M83 96h44c3.3 0 6 2.7 6 6s-2.7 6-6 6H83c-3.3 0-6-2.7-6-6s2.7-6 6-6z" fill="url(#path)" />
  <circle cx="82" cy="66" r="10" fill="#2F8F46" stroke="#F7F3EA" stroke-width="4" />
  <path d="M78 146c0-12 9.5-21.5 21.5-21.5S121 134 121 146H78z" fill="#F2C94C" stroke="#2F8F46" stroke-width="4" />
  <text x="100" y="172" text-anchor="middle" font-family="'Cairo', 'Montserrat', sans-serif" font-size="24" fill="#1F2A27" font-weight="700">Bilady</text>
</svg>
